<svg version="1.0" xmlns="http://www.w3.org/2000/svg" width="200" height="200" viewBox="0 0 150 150">
  <path d="M80.3 15.9c-17.2 5.9-28.3 21-28.8 39.5l-.3 7.9-18.6 18.6L14 100.5V136h33v-14h14v-14h14v-6.5c0-3.6.2-6.5.4-6.5s2.2.7 4.5 1.4c20 7.1 42.6-2.4 52.1-21.8 3-6 3.5-8.1 3.8-16 .6-13.1-2.7-22.2-11.2-31.4C113.9 15.6 95 10.8 80.3 15.9zm27.4 11.4c19.3 9.9 24.2 34.1 10.2 50.1-5.9 6.7-15.3 11-23.8 11-3.9-.1-8.4-.8-11.1-1.9-2.5-1-7.5-2-11.2-2.2l-6.8-.5V98H51v14H37v14H24v-20.5L43.4 86l19.4-19.5-.9-5.7C59.6 46.6 68.5 31.5 82.4 26c7.3-2.9 18.2-2.3 25.3 1.3z"/>
  <path d="M96.8 39.9c-6.8 6-2.9 16.2 6.2 16.5 10 .2 13.7-13.4 4.9-18-4.2-2.1-7.5-1.7-11.1 1.5z"/>
</svg>
